<svg width="19" height="16" viewBox="0 0 19 16" fill="none" xmlns="http://www.w3.org/2000/svg">
<path d="M0 -1C-0.552285 -1 -1 -0.552285 -1 0C-1 0.552285 -0.552285 1 0 1V-1ZM17.7071 0.707107C18.0976 0.316583 18.0976 -0.316583 17.7071 -0.707107L11.3431 -7.07107C10.9526 -7.46159 10.3195 -7.46159 9.92893 -7.07107C9.53841 -6.68054 9.53841 -6.04738 9.92893 -5.65685L15.5858 0L9.92893 5.65685C9.53841 6.04738 9.53841 6.68054 9.92893 7.07107C10.3195 7.46159 10.9526 7.46159 11.3431 7.07107L17.7071 0.707107ZM0 1H17V-1H0V1Z" transform="translate(18 8) rotate(180)" fill="#2F84FF"/>
</svg>
