<svg width="82" height="47" viewBox="0 0 82 47" fill="none" xmlns="http://www.w3.org/2000/svg">
<path d="M82 17.641C82 29.0835 66.0897 41.2222 45.3164 45.478C40.5673 46.4655 35.7288 46.9753 30.8753 46.9996C28.5695 47.0083 23.9736 46.6346 23.9736 46.6346C23.9736 46.6346 21.355 46.3469 19.7142 45.9721C10.5357 43.8752 1.77099 38.9034 0.273347 31.8122C0.0903138 30.9517 -0.00129191 30.0749 1.37619e-05 29.1958C1.37619e-05 17.7982 15.2896 5.79985 36.0174 1.53278C40.8714 0.526192 45.8172 0.0125848 50.7774 0C66.8414 0 79.7564 5.73809 81.738 15.12C81.9136 15.9491 82.0014 16.794 82 17.641Z" fill="white"/>
<path d="M17.5218 11.9927H12.3968L7.00418 31.7167H11.3889L13.325 24.7041C22.3108 24.7041 24.4235 22.2169 25.2435 18.747C25.904 15.9285 25.3517 11.9927 17.5218 11.9927ZM20.6424 18.5955C19.5718 21.9923 17.3795 22.5874 13.9001 22.5986L16.269 13.9578H17.0321C21.1776 13.9522 21.5193 15.8162 20.6424 18.5955ZM76.1404 18.3316C74.4321 18.3316 72.5472 20.0159 71.545 21.195L72.308 18.5562H68.0486L64.444 31.7167H68.8401L70.5485 25.5744C70.725 24.998 70.9439 24.435 71.2033 23.89C71.6041 22.9357 72.1902 22.0679 72.9287 21.3354C73.1342 21.1158 73.3892 20.947 73.6731 20.8426C73.9571 20.7383 74.2619 20.7013 74.563 20.7346C74.9901 20.802 75.1325 21.1557 75.161 21.5206C75.1844 21.9155 75.3524 22.2885 75.6336 22.5706C75.8063 22.7328 76.0116 22.8576 76.2362 22.9369C76.4608 23.0162 76.6997 23.0483 76.9376 23.031C77.2147 23.0196 77.4867 22.9536 77.7375 22.837C77.9884 22.7204 78.213 22.5555 78.3982 22.352C78.5834 22.1484 78.7254 21.9104 78.8159 21.6519C78.9064 21.3934 78.9435 21.1197 78.925 20.8469C78.925 19.7521 78.5833 18.3316 76.1404 18.3316ZM52.9242 18.5562H42.0022L41.4328 20.7178H47.5258C46.1819 22.7559 39.1265 27.5619 39.1265 31.7167H50.2819L51.0051 29.0722H44.1206C45.7549 25.973 51.6657 22.6492 52.9242 18.5562ZM60.4921 23.4745C59.4614 24.2718 58.3396 24.5637 56.3522 24.6311C56.6693 23.2152 57.4742 21.9513 58.63 21.0546C59.1819 20.6225 59.8521 20.3625 60.5547 20.3079C61.6196 20.3079 61.853 20.8694 61.853 21.268C61.8093 21.7131 61.6642 22.1427 61.4285 22.5247C61.1929 22.9068 60.8728 23.2315 60.4921 23.4745ZM62.8325 27.6181C62.6047 27.8427 60.6743 29.6955 58.63 29.6955C58.3006 29.7136 57.9709 29.6668 57.6601 29.5579C57.3493 29.449 57.0636 29.2801 56.8197 29.061C56.5758 28.842 56.3787 28.5773 56.2397 28.2823C56.1008 27.9873 56.0229 27.668 56.0105 27.343C55.9969 27.0244 56.0084 26.7053 56.0447 26.3885C57.8312 26.4445 59.6139 26.1918 61.3121 25.6417C63.5898 24.9118 65.1046 22.9917 65.1046 21.1164C65.1046 19.2411 63.1058 18.253 60.7996 18.253C56.1472 18.2474 51.8194 22.3067 51.8194 27.0678C51.8194 30.1053 54.0687 32.1546 57.3886 32.1546C58.8177 32.1618 60.2277 31.8306 61.5 31.1889C62.2706 30.7808 62.9688 30.2517 63.5671 29.6225L62.8325 27.6181ZM82 17.641C82 29.0835 66.0897 41.2222 45.3164 45.478C40.5673 46.4655 35.7288 46.9753 30.8753 46.9996C28.5695 47.0083 26.2652 46.8864 23.9736 46.6346L30.8069 20.7234H35.0835L32.0825 31.7167H36.4444C36.9797 29.7572 38.8931 22.593 40.0205 18.5562H31.3821L32.6918 13.5367C32.8627 12.8809 33.0737 12.2359 33.3239 11.6053C34.0357 9.80865 35.1347 8.79803 36.4501 8.57345C37.515 8.41063 37.9022 9.06753 37.9079 9.48301C37.9079 10.3027 37.2474 10.4768 37.2587 11.5829C37.256 11.8673 37.3137 12.1491 37.4281 12.4102C37.5425 12.6713 37.711 12.9059 37.9229 13.0989C38.1347 13.2919 38.3852 13.4391 38.6582 13.5309C38.9312 13.6228 39.2207 13.6573 39.508 13.6322C41.1708 13.6322 42.2129 12.5093 42.2983 10.8249C42.3447 10.3156 42.2423 9.80393 42.0031 9.35025C41.764 8.89656 41.3981 8.51986 40.9487 8.26465C39.6447 7.3607 37.31 7.14173 35.744 7.30456C32.8626 7.56283 30.8069 9.3258 29.5257 11.465C28.5406 13.1156 27.9882 14.5867 26.9917 18.3821C26.9917 18.3821 21.9179 37.5839 19.7142 45.9721C9.28195 43.934 1.77099 38.9034 0.273347 31.8122C0.0903138 30.9517 -0.00129191 30.0749 1.37619e-05 29.1958C1.37619e-05 17.7982 15.2896 5.79985 36.0174 1.53278C40.8714 0.526192 45.8172 0.0125848 50.7774 0C66.8414 0 79.7564 5.73809 81.738 15.12C81.9136 15.9491 82.0014 16.794 82 17.641Z" fill="url(#paint0_radial)"/>
<defs>
<radialGradient id="paint0_radial" cx="0.5" cy="0.5" r="0.5" gradientUnits="userSpaceOnUse" gradientTransform="translate(-70.7876 -80.4905) scale(157.326 155.119)">
<stop offset="0.25" stop-color="#00B1EB"/>
<stop offset="0.53" stop-color="#0099DE"/>
<stop offset="1" stop-color="#0063AF"/>
</radialGradient>
</defs>
</svg>
